<?xml version="1.0" standalone="no"?>
<!DOCTYPE svg PUBLIC "-//W3C//DTD SVG 20010904//EN"
 "http://www.w3.org/TR/2001/REC-SVG-20010904/DTD/svg10.dtd">
<svg version="1.0" xmlns="http://www.w3.org/2000/svg"
 width="300.000000pt" height="300.000000pt" viewBox="0 0 300.000000 300.000000"
 preserveAspectRatio="xMidYMid meet">

<g transform="translate(0.000000,300.000000) scale(0.100000,-0.100000)"
fill="#000000" stroke="none">
<path d="M1375 2583 c-256 -23 -505 -142 -690 -329 -209 -211 -319 -485 -318
-789 1 -163 40 -341 102 -462 11 -23 21 -45 21 -48 0 -3 -17 -6 -37 -6 l-38
-2 40 -7 c36 -6 37 -7 9 -9 -17 0 -33 -4 -36 -7 -18 -18 103 -192 204 -294
305 -307 759 -425 1176 -304 224 65 442 207 584 380 63 78 140 203 132 216 -3
4 -17 9 -32 9 -24 1 -23 3 8 9 l35 7 -36 2 -37 1 34 78 c182 421 89 907 -236
1232 -234 234 -559 353 -885 323z m394 -667 l279 -438 -112 -175 c-62 -96
-120 -183 -129 -194 -9 -10 -17 -23 -17 -27 0 -5 -7 -9 -15 -9 -8 0 -15 4 -15
9 0 5 48 86 106 179 59 93 105 171 103 174 -4 4 -34 -2 -130 -26 -36 -9 -38
-13 -100 -157 -35 -81 -68 -150 -73 -154 -7 -5 -7 -8 -1 -8 6 0 3 -4 -5 -9 -8
-6 -17 -8 -21 -5 -5 2 21 75 57 162 35 86 64 165 64 174 0 22 -241 720 -247
714 -2 -2 9 -102 26 -222 17 -121 40 -288 51 -373 22 -167 24 -140 -24 -396
-7 -36 -17 -61 -25 -63 -16 -3 -13 52 15 204 l18 101 -42 304 c-45 318 -52
363 -57 357 -2 -2 -25 -151 -50 -332 l-47 -328 26 -146 c23 -137 23 -181 -1
-150 -6 7 -22 76 -36 154 l-26 141 50 364 c27 200 48 370 47 377 -2 10 -169
-459 -237 -665 -13 -41 -13 -43 52 -205 36 -90 63 -166 61 -170 -13 -21 -35
17 -94 158 -35 85 -69 159 -75 163 -12 9 -158 41 -163 36 -2 -2 46 -83 107
-179 66 -106 106 -178 100 -182 -17 -10 -36 16 -163 214 -78 121 -116 188
-111 199 16 43 559 883 566 876 5 -5 134 -205 288 -447z m-865 -283 c-31 -49
-67 -103 -80 -122 l-23 -34 34 -53 35 -54 -25 -1 c-14 0 -38 -1 -54 -2 -19 0
-61 19 -120 55 l-90 55 187 121 c103 67 188 121 190 122 1 0 -23 -39 -54 -87z
m1287 -39 c99 -64 179 -117 177 -119 -2 -1 -43 -27 -93 -57 -61 -37 -96 -53
-108 -49 -15 6 -5 16 52 54 39 26 71 51 71 55 0 6 -127 90 -152 101 -5 1 5
-19 21 -47 17 -27 31 -52 31 -56 0 -4 -14 -27 -31 -52 -16 -24 -28 -48 -25
-52 2 -4 -9 -7 -24 -7 l-29 0 22 35 c11 19 27 45 35 57 12 20 9 28 -36 95 -70
105 -103 158 -97 158 3 0 86 -52 186 -116z"/>
<path d="M1187 1850 c-120 -187 -220 -346 -223 -354 -4 -11 18 -19 91 -36 53
-12 98 -20 100 -18 4 3 231 666 249 726 4 12 6 22 4 22 -2 0 -101 -153 -221
-340z"/>
<path d="M1542 2180 c3 -8 42 -123 87 -255 145 -423 164 -480 167 -484 6 -7
194 41 194 49 0 5 -24 47 -54 92 -29 46 -126 198 -216 338 -157 246 -189 293
-178 260z"/>
<path d="M738 1533 c-43 -27 -77 -51 -78 -55 0 -9 153 -108 159 -103 2 2 -11
27 -28 54 l-32 50 24 38 c35 56 39 63 35 63 -2 0 -38 -21 -80 -47z"/>
</g>
</svg>
